<?xml version="1.0" standalone="no"?>
<!DOCTYPE svg PUBLIC "-//W3C//DTD SVG 20010904//EN"
 "http://www.w3.org/TR/2001/REC-SVG-20010904/DTD/svg10.dtd">
<svg version="1.0" xmlns="http://www.w3.org/2000/svg"
 width="200.000000pt" height="200.000000pt" viewBox="0 0 200.000000 200.000000"
 preserveAspectRatio="xMidYMid meet">
<metadata>
Created by potrace 1.11, written by Peter Selinger 2001-2013
</metadata>
<g transform="translate(0.000000,200.000000) scale(0.100000,-0.100000)"
fill="#000000" stroke="none">
<path d="M540 1680 c1 -25 1 -80 1 -122 l-1 -78 -113 0 -113 0 0 -80 -1 -80
114 0 113 0 1 -82 c0 -46 1 -101 2 -123 l2 -39 68 1 c37 0 73 1 80 2 9 1 12
32 12 118 l0 118 113 3 112 3 0 79 0 80 -114 0 -114 0 0 122 1 122 -82 1 -82
1 1 -46z"/>
<path d="M1153 1492 c-20 -3 -21 -8 -20 -85 l2 -82 240 0 240 0 -3 80 c-2 44
-5 81 -7 84 -5 4 -420 7 -452 3z"/>
<path d="M1083 911 l-62 -67 105 -105 104 -105 -100 -99 -100 -100 61 -61 61
-61 99 100 100 101 97 -97 97 -97 63 63 c34 34 62 67 62 72 0 6 -26 35 -57 66
-32 31 -73 73 -92 92 l-33 36 100 99 100 99 -61 61 -62 61 -76 -77 c-42 -42
-87 -87 -101 -100 l-26 -23 -105 105 c-58 58 -107 105 -109 105 -2 -1 -31 -31
-65 -68z"/>
<path d="M550 877 c-37 -19 -55 -61 -40 -96 11 -27 46 -51 75 -51 66 0 105 77
63 124 -28 31 -65 40 -98 23z"/>
<path d="M352 586 l3 -70 235 0 235 0 3 70 3 70 -241 0 -241 0 3 -70z"/>
<path d="M549 436 c-30 -14 -52 -59 -44 -86 11 -33 46 -60 79 -60 76 1 109 88
51 135 -30 25 -53 28 -86 11z"/>
</g>
</svg>
